
STARTFONT 2.1
COMMENT Exported by Fony v1.3.6
FONT Verdana
SIZE 16 96 96
FONTBOUNDINGBOX 11 15 0 -1
STARTPROPERTIES 6
COPYRIGHT ""
RESOLUTION_X 96
RESOLUTION_Y 96
FONT_ASCENT 15
FONT_DESCENT 1
DEFAULT_CHAR 0
ENDPROPERTIES
CHARS 160
STARTCHAR 032
ENCODING 32
SWIDTH 576 0
DWIDTH 8 0
BBX 0 0 0 0
BITMAP
ENDCHAR
STARTCHAR 033
ENCODING 33
SWIDTH 288 0
DWIDTH 4 0
BBX 2 14 1 0
BITMAP
40
C0
C0
C0
C0
C0
C0
C0
C0
80
00
40
C0
80
ENDCHAR
STARTCHAR 034
ENCODING 34
SWIDTH 504 0
DWIDTH 7 0
BBX 6 5 0 9
BITMAP
44
CC
CC
CC
88
ENDCHAR
STARTCHAR 035
ENCODING 35
SWIDTH 792 0
DWIDTH 11 0
BBX 10 14 0 0
BITMAP
0880
0880
1100
1100
7FC0
1100
1100
2200
2200
FF80
2200
2200
4400
4400
ENDCHAR
STARTCHAR 036
ENCODING 36
SWIDTH 720 0
DWIDTH 10 0
BBX 9 14 0 0
BITMAP
0800
0800
3B80
7B00
C800
C800
E800
6B00
0B80
0980
0980
6F00
EE00
0800
ENDCHAR
STARTCHAR 037
ENCODING 37
SWIDTH 648 0
DWIDTH 9 0
BBX 8 14 0 0
BITMAP
61
B3
D6
66
0C
0C
18
18
30
30
66
6B
CD
86
ENDCHAR
STARTCHAR 038
ENCODING 38
SWIDTH 720 0
DWIDTH 10 0
BBX 9 14 0 0
BITMAP
3800
7C00
6C00
6C00
6C00
3800
3880
6D80
C700
C200
C700
ED80
7C80
3800
ENDCHAR
STARTCHAR 039
ENCODING 39
SWIDTH 216 0
DWIDTH 3 0
BBX 2 5 0 10
BITMAP
80
C0
C0
C0
40
ENDCHAR
STARTCHAR 040
ENCODING 40
SWIDTH 432 0
DWIDTH 6 0
BBX 5 14 0 0
BITMAP
18
30
60
60
C0
C0
C0
C0
C0
C0
60
60
30
18
ENDCHAR
STARTCHAR 041
ENCODING 41
SWIDTH 432 0
DWIDTH 6 0
BBX 5 14 0 0
BITMAP
C0
60
30
30
18
18
18
18
18
18
38
30
60
C0
ENDCHAR
STARTCHAR 042
ENCODING 42
SWIDTH 576 0
DWIDTH 8 0
BBX 7 7 0 4
BITMAP
92
D6
7C
10
7C
D6
92
ENDCHAR
STARTCHAR 043
ENCODING 43
SWIDTH 720 0
DWIDTH 10 0
BBX 8 10 0 1
BITMAP
08
18
18
18
7F
FE
18
18
18
10
ENDCHAR
STARTCHAR 044
ENCODING 44
SWIDTH 360 0
DWIDTH 5 0
BBX 4 6 0 0
BITMAP
70
60
60
40
C0
C0
ENDCHAR
STARTCHAR 045
ENCODING 45
SWIDTH 648 0
DWIDTH 9 0
BBX 8 2 0 5
BITMAP
7F
FE
ENDCHAR
STARTCHAR 046
ENCODING 46
SWIDTH 288 0
DWIDTH 4 0
BBX 3 3 0 0
BITMAP
E0
A0
E0
ENDCHAR
STARTCHAR 047
ENCODING 47
SWIDTH 648 0
DWIDTH 9 0
BBX 8 14 0 0
BITMAP
03
03
06
06
0C
0C
18
18
30
30
60
60
C0
C0
ENDCHAR
STARTCHAR 048
ENCODING 48
SWIDTH 720 0
DWIDTH 10 0
BBX 9 14 0 0
BITMAP
3E00
7F00
E380
C580
C580
C580
C980
C980
D180
D180
D180
E380
7F00
3E00
ENDCHAR
STARTCHAR 049
ENCODING 49
SWIDTH 720 0
DWIDTH 10 0
BBX 9 14 0 0
BITMAP
0C00
1C00
3C00
7C00
0800
0400
0C00
0C00
0800
0400
0C00
0C00
7F80
FF80
ENDCHAR
STARTCHAR 050
ENCODING 50
SWIDTH 720 0
DWIDTH 10 0
BBX 9 14 0 0
BITMAP
7E00
FF00
C380
C180
0180
0380
3F00
7E00
E000
C000
C000
C000
DF80
BF00
ENDCHAR
STARTCHAR 051
ENCODING 51
SWIDTH 720 0
DWIDTH 10 0
BBX 9 14 0 0
BITMAP
7E00
FF00
C380
0180
0180
0300
3A00
7700
0380
0180
0180
0380
FF00
7E00
ENDCHAR
STARTCHAR 052
ENCODING 52
SWIDTH 720 0
DWIDTH 10 0
BBX 9 14 0 0
BITMAP
0200
0600
0E00
1E00
3E00
7600
E600
C600
FB80
F700
0600
0600
0600
0400
ENDCHAR
STARTCHAR 053
ENCODING 53
SWIDTH 720 0
DWIDTH 10 0
BBX 9 14 0 0
BITMAP
7F80
7F80
6000
6000
6000
6E00
6F00
0380
0180
0180
0180
C300
FF00
7C00
ENDCHAR
STARTCHAR 054
ENCODING 54
SWIDTH 720 0
DWIDTH 10 0
BBX 9 14 0 0
BITMAP
1F00
7F00
6000
C000
C000
C000
DE00
DF00
C380
C180
C180
E300
7F00
3C00
ENDCHAR
STARTCHAR 055
ENCODING 55
SWIDTH 720 0
DWIDTH 10 0
BBX 9 14 0 0
BITMAP
7F80
FF80
0000
0300
0300
0600
0600
0C00
0C00
1800
1800
3000
3000
2000
ENDCHAR
STARTCHAR 056
ENCODING 56
SWIDTH 720 0
DWIDTH 10 0
BBX 9 14 0 0
BITMAP
3A00
7700
E380
C180
C180
6300
3600
6F00
E380
C180
C180
E380
7700
2E00
ENDCHAR
STARTCHAR 057
ENCODING 57
SWIDTH 720 0
DWIDTH 10 0
BBX 9 14 0 0
BITMAP
3C00
FF00
E700
C380
C180
C180
E180
FD80
7D80
0180
0380
0700
7F00
FC00
ENDCHAR
STARTCHAR 058
ENCODING 58
SWIDTH 288 0
DWIDTH 4 0
BBX 3 11 0 2
BITMAP
E0
A0
E0
00
00
00
00
00
E0
A0
E0
ENDCHAR
STARTCHAR 059
ENCODING 59
SWIDTH 360 0
DWIDTH 5 0
BBX 4 13 0 0
BITMAP
70
50
70
00
00
00
00
00
70
50
70
60
C0
ENDCHAR
STARTCHAR 060
ENCODING 60
SWIDTH 720 0
DWIDTH 10 0
BBX 9 11 0 1
BITMAP
0180
0380
0F00
1C00
7800
E000
7800
1C00
0F00
0380
0180
ENDCHAR
STARTCHAR 061
ENCODING 61
SWIDTH 720 0
DWIDTH 10 0
BBX 9 6 0 4
BITMAP
7F80
FF00
0000
0000
7F80
FF00
ENDCHAR
STARTCHAR 062
ENCODING 62
SWIDTH 720 0
DWIDTH 10 0
BBX 9 11 0 1
BITMAP
C000
E000
7800
3C00
0F00
0380
0F00
3C00
7800
E000
C000
ENDCHAR
STARTCHAR 063
ENCODING 63
SWIDTH 648 0
DWIDTH 9 0
BBX 8 14 0 0
BITMAP
74
EE
87
03
03
06
0E
38
30
30
00
00
30
30
ENDCHAR
STARTCHAR 064
ENCODING 64
SWIDTH 720 0
DWIDTH 10 0
BBX 9 11 0 1
BITMAP
3E00
4100
8080
9A80
A680
A280
A280
A680
9B00
4000
3F80
ENDCHAR
STARTCHAR 065
ENCODING 65
SWIDTH 720 0
DWIDTH 10 0
BBX 9 14 0 0
BITMAP
FC00
FE00
C700
C380
C180
C180
C180
FD80
FD80
C180
C180
C180
C180
8100
ENDCHAR
STARTCHAR 066
ENCODING 66
SWIDTH 720 0
DWIDTH 10 0
BBX 9 14 0 0
BITMAP
5E00
DF00
C380
C180
C180
C380
FF00
FF00
C380
C180
C180
C380
DF00
BE00
ENDCHAR
STARTCHAR 067
ENCODING 67
SWIDTH 720 0
DWIDTH 10 0
BBX 9 14 0 0
BITMAP
0E00
3F00
7380
6180
C000
C000
C000
C000
C000
C000
6000
7000
3F80
0F00
ENDCHAR
STARTCHAR 068
ENCODING 68
SWIDTH 720 0
DWIDTH 10 0
BBX 9 14 0 0
BITMAP
EE00
6F00
6380
6180
6180
6180
6180
6180
6180
6180
6180
6380
6F00
EE00
ENDCHAR
STARTCHAR 069
ENCODING 69
SWIDTH 720 0
DWIDTH 10 0
BBX 9 14 0 0
BITMAP
5F80
DF00
C000
C000
C000
C000
DF00
DE00
C000
C000
C000
C000
DF80
BF00
ENDCHAR
STARTCHAR 070
ENCODING 70
SWIDTH 720 0
DWIDTH 10 0
BBX 9 14 0 0
BITMAP
5F80
DF00
C000
C000
C000
C000
DF00
DE00
C000
C000
C000
C000
C000
8000
ENDCHAR
STARTCHAR 071
ENCODING 71
SWIDTH 720 0
DWIDTH 10 0
BBX 9 14 0 0
BITMAP
3F80
7F80
E180
C000
C000
C000
C000
CF80
DF80
C180
C180
E180
7F80
3E00
ENDCHAR
STARTCHAR 072
ENCODING 72
SWIDTH 720 0
DWIDTH 10 0
BBX 9 14 0 0
BITMAP
8100
C180
C180
C180
C180
C180
DF80
DF80
C180
C180
C180
C180
C180
4080
ENDCHAR
STARTCHAR 073
ENCODING 73
SWIDTH 720 0
DWIDTH 10 0
BBX 8 14 1 0
BITMAP
FE
7F
18
18
18
18
18
18
18
18
18
18
FE
7F
ENDCHAR
STARTCHAR 074
ENCODING 74
SWIDTH 720 0
DWIDTH 10 0
BBX 9 14 0 0
BITMAP
1F80
3F80
0180
0180
0180
0180
0180
0180
0180
0180
0180
C380
FF00
3E00
ENDCHAR
STARTCHAR 075
ENCODING 75
SWIDTH 720 0
DWIDTH 10 0
BBX 9 14 0 0
BITMAP
4180
C380
C700
CE00
DC00
D800
D800
D800
D800
DC00
CE00
C700
C380
4180
ENDCHAR
STARTCHAR 076
ENCODING 76
SWIDTH 720 0
DWIDTH 10 0
BBX 9 14 0 0
BITMAP
4000
C000
C000
C000
C000
C000
C000
C000
C000
C000
C000
C000
FF80
FF00
ENDCHAR
STARTCHAR 077
ENCODING 77
SWIDTH 720 0
DWIDTH 10 0
BBX 9 14 0 0
BITMAP
C180
E380
F780
F780
D580
C180
D580
DD80
DD80
C980
C180
C180
C180
8100
ENDCHAR
STARTCHAR 078
ENCODING 78
SWIDTH 720 0
DWIDTH 10 0
BBX 9 14 0 0
BITMAP
E100
E180
F180
F180
F980
D980
DD80
CD80
CD80
C580
C580
C180
C180
8080
ENDCHAR
STARTCHAR 079
ENCODING 79
SWIDTH 720 0
DWIDTH 10 0
BBX 9 14 0 0
BITMAP
2E00
6F00
E380
C180
C180
C180
C180
C180
C180
C180
C180
E380
7B00
3A00
ENDCHAR
STARTCHAR 080
ENCODING 80
SWIDTH 720 0
DWIDTH 10 0
BBX 9 14 0 0
BITMAP
FE00
FF00
C380
C180
C180
C380
DF00
DE00
C000
C000
C000
C000
C000
8000
ENDCHAR
STARTCHAR 081
ENCODING 81
SWIDTH 720 0
DWIDTH 10 0
BBX 10 15 0 -1
BITMAP
2E00
6F00
E380
C180
C180
C180
C180
C180
C180
C180
C180
E300
7B80
3AC0
00C0
ENDCHAR
STARTCHAR 082
ENCODING 82
SWIDTH 720 0
DWIDTH 10 0
BBX 9 14 0 0
BITMAP
7E00
FF00
C380
C180
C180
C380
DF00
DC00
CE00
C700
C380
C180
C180
8100
ENDCHAR
STARTCHAR 083
ENCODING 83
SWIDTH 720 0
DWIDTH 10 0
BBX 9 14 0 0
BITMAP
3E00
7F00
E000
C000
C000
E000
7600
1B00
0380
0180
0180
0380
FF80
7F00
ENDCHAR
STARTCHAR 084
ENCODING 84
SWIDTH 720 0
DWIDTH 10 0
BBX 9 14 0 0
BITMAP
FF00
7F80
0000
0C00
0C00
0C00
0C00
0C00
0C00
0C00
0C00
0C00
0C00
0400
ENDCHAR
STARTCHAR 085
ENCODING 85
SWIDTH 720 0
DWIDTH 10 0
BBX 9 14 0 0
BITMAP
4080
C180
C180
C180
C180
C180
C180
C180
C180
C180
C180
6300
7F00
3E00
ENDCHAR
STARTCHAR 086
ENCODING 86
SWIDTH 720 0
DWIDTH 10 0
BBX 9 14 0 0
BITMAP
E380
6300
6300
6300
2200
3600
3600
3600
1400
1C00
1C00
1C00
0800
0800
ENDCHAR
STARTCHAR 087
ENCODING 87
SWIDTH 792 0
DWIDTH 11 0
BBX 10 14 0 0
BITMAP
4040
C0C0
C0C0
C0C0
C0C0
C0C0
CCC0
CCC0
CCC0
DEC0
DEC0
D3C0
C1C0
80C0
ENDCHAR
STARTCHAR 088
ENCODING 88
SWIDTH 720 0
DWIDTH 10 0
BBX 9 14 0 0
BITMAP
C180
C180
C180
6300
6300
3200
3800
1C00
0E00
6700
6300
C180
C180
C180
ENDCHAR
STARTCHAR 089
ENCODING 89
SWIDTH 720 0
DWIDTH 10 0
BBX 10 14 0 0
BITMAP
C0C0
C0C0
6180
6180
3300
3F00
1E00
0C00
0800
0400
0C00
0C00
0C00
0800
ENDCHAR
STARTCHAR 090
ENCODING 90
SWIDTH 720 0
DWIDTH 10 0
BBX 9 14 0 0
BITMAP
7F80
FF80
0180
0380
0700
0600
0400
1000
3000
7000
E000
C000
FF80
FF00
ENDCHAR
STARTCHAR 091
ENCODING 91
SWIDTH 432 0
DWIDTH 6 0
BBX 5 14 0 0
BITMAP
F8
C0
C0
C0
C0
C0
C0
C0
C0
C0
C0
C0
C0
F8
ENDCHAR
STARTCHAR 092
ENCODING 92
SWIDTH 720 0
DWIDTH 10 0
BBX 9 14 0 0
BITMAP
C000
6000
6000
3000
3000
1800
1800
0C00
0C00
0600
0600
0300
0300
0180
ENDCHAR
STARTCHAR 093
ENCODING 93
SWIDTH 432 0
DWIDTH 6 0
BBX 5 14 0 0
BITMAP
F8
18
18
18
18
18
18
18
18
18
18
18
18
F8
ENDCHAR
STARTCHAR 094
ENCODING 94
SWIDTH 720 0
DWIDTH 10 0
BBX 9 6 0 8
BITMAP
0800
1C00
3600
6300
C180
8080
ENDCHAR
STARTCHAR 095
ENCODING 95
SWIDTH 720 0
DWIDTH 10 0
BBX 10 1 0 -1
BITMAP
FFC0
ENDCHAR
STARTCHAR 096
ENCODING 96
SWIDTH 360 0
DWIDTH 5 0
BBX 4 3 0 12
BITMAP
E0
60
30
ENDCHAR
STARTCHAR 097
ENCODING 97
SWIDTH 648 0
DWIDTH 9 0
BBX 8 11 0 0
BITMAP
7C
7F
03
03
3B
7B
E3
C3
C7
FF
7B
ENDCHAR
STARTCHAR 098
ENCODING 98
SWIDTH 720 0
DWIDTH 10 0
BBX 9 13 0 0
BITMAP
4000
C000
C000
C000
C000
DE00
DF00
C380
C180
C180
C300
FF00
DE00
ENDCHAR
STARTCHAR 099
ENCODING 99
SWIDTH 648 0
DWIDTH 9 0
BBX 8 11 0 0
BITMAP
1E
3F
73
E0
C0
C0
C0
E0
F0
7F
1E
ENDCHAR
STARTCHAR 100
ENCODING 100
SWIDTH 720 0
DWIDTH 10 0
BBX 9 13 0 0
BITMAP
0080
0180
0180
0180
0180
3D80
7D80
E180
C180
C180
E380
7F80
3D80
ENDCHAR
STARTCHAR 101
ENCODING 101
SWIDTH 648 0
DWIDTH 9 0
BBX 8 11 0 0
BITMAP
3C
7E
E7
C3
C3
DF
DE
C0
E3
7F
3E
ENDCHAR
STARTCHAR 102
ENCODING 102
SWIDTH 576 0
DWIDTH 8 0
BBX 7 13 0 0
BITMAP
3E
7C
60
60
FC
F8
60
60
60
60
60
60
20
ENDCHAR
STARTCHAR 103
ENCODING 103
SWIDTH 648 0
DWIDTH 9 0
BBX 8 13 0 0
BITMAP
3F
7F
E3
C3
C3
C3
E3
7B
33
03
03
7F
FE
ENDCHAR
STARTCHAR 104
ENCODING 104
SWIDTH 648 0
DWIDTH 9 0
BBX 8 13 0 0
BITMAP
40
C0
C0
C0
DE
DF
C3
C3
C3
C3
C3
C3
82
ENDCHAR
STARTCHAR 105
ENCODING 105
SWIDTH 216 0
DWIDTH 3 0
BBX 2 13 0 0
BITMAP
40
C0
80
40
C0
C0
C0
C0
C0
C0
C0
C0
80
ENDCHAR
STARTCHAR 106
ENCODING 106
SWIDTH 432 0
DWIDTH 6 0
BBX 5 14 0 -1
BITMAP
10
18
18
08
30
78
18
18
18
18
18
18
78
F0
ENDCHAR
STARTCHAR 107
ENCODING 107
SWIDTH 648 0
DWIDTH 9 0
BBX 8 13 0 0
BITMAP
40
C0
C0
C6
C6
CC
D8
D8
D8
CC
C6
C7
83
ENDCHAR
STARTCHAR 108
ENCODING 108
SWIDTH 216 0
DWIDTH 3 0
BBX 2 14 0 0
BITMAP
40
C0
C0
C0
C0
C0
C0
C0
C0
C0
C0
C0
C0
80
ENDCHAR
STARTCHAR 109
ENCODING 109
SWIDTH 720 0
DWIDTH 10 0
BBX 9 11 0 0
BITMAP
5B00
DB80
C980
C980
C980
C980
C980
C980
C980
C180
8100
ENDCHAR
STARTCHAR 110
ENCODING 110
SWIDTH 648 0
DWIDTH 9 0
BBX 8 11 0 0
BITMAP
5E
DF
C3
C3
C3
C3
C3
C3
C3
C3
82
ENDCHAR
STARTCHAR 111
ENCODING 111
SWIDTH 648 0
DWIDTH 9 0
BBX 8 11 0 0
BITMAP
34
76
E3
C3
C3
C3
C3
C3
E3
76
34
ENDCHAR
STARTCHAR 112
ENCODING 112
SWIDTH 648 0
DWIDTH 9 0
BBX 8 11 0 0
BITMAP
FC
FE
C7
C3
C7
DE
DC
C0
C0
C0
80
ENDCHAR
STARTCHAR 113
ENCODING 113
SWIDTH 648 0
DWIDTH 9 0
BBX 9 13 0 -1
BITMAP
3F00
7F00
E300
C300
C300
C300
FB00
7B00
0300
0300
0380
0380
0380
ENDCHAR
STARTCHAR 114
ENCODING 114
SWIDTH 576 0
DWIDTH 8 0
BBX 7 11 0 0
BITMAP
5C
DE
E0
E0
C0
C0
C0
C0
C0
C0
80
ENDCHAR
STARTCHAR 115
ENCODING 115
SWIDTH 648 0
DWIDTH 9 0
BBX 8 11 0 0
BITMAP
3E
7F
C0
C0
F0
66
0F
03
03
FE
7C
ENDCHAR
STARTCHAR 116
ENCODING 116
SWIDTH 504 0
DWIDTH 7 0
BBX 6 13 0 0
BITMAP
20
60
60
FC
F8
60
60
60
60
60
60
7C
3C
ENDCHAR
STARTCHAR 117
ENCODING 117
SWIDTH 648 0
DWIDTH 9 0
BBX 8 11 0 0
BITMAP
41
C3
C3
C3
C3
C3
C3
C3
E3
7B
3A
ENDCHAR
STARTCHAR 118
ENCODING 118
SWIDTH 648 0
DWIDTH 9 0
BBX 8 11 0 0
BITMAP
81
81
C3
C3
66
66
66
24
3C
18
18
ENDCHAR
STARTCHAR 119
ENCODING 119
SWIDTH 720 0
DWIDTH 10 0
BBX 9 11 0 0
BITMAP
8080
C180
C980
C980
C980
C980
C180
DD80
F780
E380
4100
ENDCHAR
STARTCHAR 120
ENCODING 120
SWIDTH 648 0
DWIDTH 9 0
BBX 8 11 0 0
BITMAP
C3
66
66
34
18
18
18
34
66
66
C3
ENDCHAR
STARTCHAR 121
ENCODING 121
SWIDTH 648 0
DWIDTH 9 0
BBX 8 12 0 -1
BITMAP
C1
E3
63
66
6E
2C
0C
18
18
30
F0
E0
ENDCHAR
STARTCHAR 122
ENCODING 122
SWIDTH 648 0
DWIDTH 9 0
BBX 8 11 0 0
BITMAP
7F
FF
07
06
0C
00
30
60
E0
FF
FE
ENDCHAR
STARTCHAR 123
ENCODING 123
SWIDTH 576 0
DWIDTH 8 0
BBX 7 14 0 0
BITMAP
0E
1C
18
18
18
30
E0
E0
30
18
18
18
1C
0E
ENDCHAR
STARTCHAR 124
ENCODING 124
SWIDTH 360 0
DWIDTH 5 0
BBX 2 16 1 -1
BITMAP
C0
C0
C0
C0
C0
C0
C0
C0
C0
C0
C0
C0
C0
C0
C0
C0
ENDCHAR
STARTCHAR 125
ENCODING 125
SWIDTH 648 0
DWIDTH 9 0
BBX 8 14 0 0
BITMAP
E0
70
18
18
18
0C
07
07
0C
18
18
18
70
E0
ENDCHAR
STARTCHAR 126
ENCODING 126
SWIDTH 792 0
DWIDTH 11 0
BBX 10 5 0 4
BITMAP
30C0
78C0
CCC0
C780
C300
ENDCHAR
STARTCHAR 127
ENCODING 127
SWIDTH 432 0
DWIDTH 6 0
BBX 5 13 0 1
BITMAP
F8
88
88
88
88
88
88
88
88
88
88
88
F8
ENDCHAR
STARTCHAR 128
ENCODING 128
SWIDTH 648 0
DWIDTH 9 0
BBX 8 11 0 0
BITMAP
FC
FE
C7
C3
C7
DE
DC
C0
C0
C0
80
ENDCHAR
STARTCHAR 129
ENCODING 129
SWIDTH 648 0
DWIDTH 9 0
BBX 8 11 0 0
BITMAP
1E
3F
73
E0
C0
C0
C0
E0
F0
7F
1E
ENDCHAR
STARTCHAR 130
ENCODING 130
SWIDTH 648 0
DWIDTH 9 0
BBX 8 11 0 0
BITMAP
7F
FE
18
18
18
18
18
18
18
18
10
ENDCHAR
STARTCHAR 131
ENCODING 131
SWIDTH 648 0
DWIDTH 9 0
BBX 8 12 0 -1
BITMAP
C1
E3
63
66
6E
2C
0C
18
18
30
F0
E0
ENDCHAR
STARTCHAR 132
ENCODING 132
SWIDTH 648 0
DWIDTH 9 0
BBX 8 12 0 -1
BITMAP
7E
FF
DB
DB
DB
DB
5A
18
18
18
18
10
ENDCHAR
STARTCHAR 133
ENCODING 133
SWIDTH 648 0
DWIDTH 9 0
BBX 8 11 0 0
BITMAP
C3
66
66
34
18
18
18
34
66
66
C3
ENDCHAR
STARTCHAR 134
ENCODING 134
SWIDTH 648 0
DWIDTH 9 0
BBX 8 12 0 -1
BITMAP
84
C6
C6
C6
C6
C6
C6
C6
C6
FE
FF
03
ENDCHAR
STARTCHAR 135
ENCODING 135
SWIDTH 648 0
DWIDTH 9 0
BBX 8 11 0 0
BITMAP
41
C3
C3
C3
E7
7F
3F
03
03
03
02
ENDCHAR
STARTCHAR 136
ENCODING 136
SWIDTH 648 0
DWIDTH 9 0
BBX 8 11 0 0
BITMAP
82
C3
C3
D3
DB
DB
DB
DB
DB
CB
FF
ENDCHAR
STARTCHAR 137
ENCODING 137
SWIDTH 648 0
DWIDTH 9 0
BBX 8 12 0 -1
BITMAP
82
C3
C3
D3
DB
DB
DB
DB
DA
C8
FF
03
ENDCHAR
STARTCHAR 138
ENCODING 138
SWIDTH 648 0
DWIDTH 9 0
BBX 8 11 0 0
BITMAP
C0
E0
60
60
6C
6E
67
63
67
7E
7C
ENDCHAR
STARTCHAR 139
ENCODING 139
SWIDTH 648 0
DWIDTH 9 0
BBX 8 11 0 0
BITMAP
82
C3
C3
C3
DB
DD
CF
C7
CF
FD
FB
ENDCHAR
STARTCHAR 140
ENCODING 140
SWIDTH 648 0
DWIDTH 9 0
BBX 8 11 0 0
BITMAP
40
C0
C0
C0
DC
DE
C7
C3
C7
FE
FC
ENDCHAR
STARTCHAR 141
ENCODING 141
SWIDTH 648 0
DWIDTH 9 0
BBX 8 11 0 0
BITMAP
7C
FE
C6
03
1B
3B
03
03
06
FE
78
ENDCHAR
STARTCHAR 142
ENCODING 142
SWIDTH 720 0
DWIDTH 10 0
BBX 9 11 0 0
BITMAP
4700
CF80
CD80
CD80
DD80
DD80
CD80
CD80
CD80
CF80
8700
ENDCHAR
STARTCHAR 143
ENCODING 143
SWIDTH 648 0
DWIDTH 9 0
BBX 8 11 0 0
BITMAP
3F
7F
E3
C3
E3
7B
3B
33
33
73
E2
ENDCHAR
STARTCHAR 144
ENCODING 144
SWIDTH 720 0
DWIDTH 10 0
BBX 9 14 0 0
BITMAP
FC00
FE00
C700
C380
C180
C180
C180
FD80
FD80
C180
C180
C180
C180
8100
ENDCHAR
STARTCHAR 145
ENCODING 145
SWIDTH 720 0
DWIDTH 10 0
BBX 9 14 0 0
BITMAP
DF80
DF00
C000
C000
C000
C000
DE00
DF00
C380
C180
C180
C380
FF00
FE00
ENDCHAR
STARTCHAR 146
ENCODING 146
SWIDTH 720 0
DWIDTH 10 0
BBX 9 14 0 0
BITMAP
5E00
DF00
C380
C180
C180
C380
FF00
FF00
C380
C180
C180
C380
DF00
BE00
ENDCHAR
STARTCHAR 147
ENCODING 147
SWIDTH 720 0
DWIDTH 10 0
BBX 9 14 0 0
BITMAP
DF00
DF80
C000
C000
C000
C000
C000
C000
C000
C000
C000
C000
C000
8000
ENDCHAR
STARTCHAR 148
ENCODING 148
SWIDTH 720 0
DWIDTH 10 0
BBX 9 14 0 0
BITMAP
0B00
1B00
3B00
7300
6300
6300
6300
6300
6300
6300
7B00
FB80
C180
C180
ENDCHAR
STARTCHAR 149
ENCODING 149
SWIDTH 720 0
DWIDTH 10 0
BBX 9 14 0 0
BITMAP
5F80
DF00
C000
C000
C000
C000
DF00
DE00
C000
C000
C000
C000
DF80
BF00
ENDCHAR
STARTCHAR 150
ENCODING 150
SWIDTH 792 0
DWIDTH 11 0
BBX 10 14 0 0
BITMAP
4040
C0C0
C4C0
CCC0
CCC0
6D80
6D80
6D80
6D80
CCC0
CCC0
CCC0
C8C0
8080
ENDCHAR
STARTCHAR 151
ENCODING 151
SWIDTH 720 0
DWIDTH 10 0
BBX 9 14 0 0
BITMAP
7A00
FB00
8380
0180
0180
0300
3A00
7B00
0380
0180
0180
8380
FB00
7800
ENDCHAR
STARTCHAR 152
ENCODING 152
SWIDTH 720 0
DWIDTH 10 0
BBX 9 14 0 0
BITMAP
4380
C380
C780
C780
C780
CD80
CD80
CD80
D980
D980
D980
D180
D180
C100
ENDCHAR
STARTCHAR 153
ENCODING 153
SWIDTH 720 0
DWIDTH 10 0
BBX 9 14 0 0
BITMAP
5B80
DB80
D780
C780
C780
CD80
CD80
CD80
D980
D980
D980
D180
D180
C100
ENDCHAR
STARTCHAR 154
ENCODING 154
SWIDTH 720 0
DWIDTH 10 0
BBX 9 14 0 0
BITMAP
4180
C380
C700
CE00
DC00
D800
D800
D800
D800
DC00
CE00
C700
C380
4180
ENDCHAR
STARTCHAR 155
ENCODING 155
SWIDTH 720 0
DWIDTH 10 0
BBX 9 14 0 0
BITMAP
DC00
DE00
C700
C380
C180
C180
C180
C180
C180
C180
C180
C180
C180
C180
ENDCHAR
STARTCHAR 156
ENCODING 156
SWIDTH 720 0
DWIDTH 10 0
BBX 9 14 0 0
BITMAP
C180
E380
F780
F780
D580
C180
D580
DD80
DD80
C980
C180
C180
C180
8100
ENDCHAR
STARTCHAR 157
ENCODING 157
SWIDTH 720 0
DWIDTH 10 0
BBX 9 14 0 0
BITMAP
8100
C180
C180
C180
C180
C180
DF80
DF80
C180
C180
C180
C180
C180
4080
ENDCHAR
STARTCHAR 158
ENCODING 158
SWIDTH 720 0
DWIDTH 10 0
BBX 9 14 0 0
BITMAP
2E00
6F00
E380
C180
C180
C180
C180
C180
C180
C180
C180
E380
7B00
3A00
ENDCHAR
STARTCHAR 159
ENCODING 159
SWIDTH 720 0
DWIDTH 10 0
BBX 9 14 0 0
BITMAP
DF80
DF80
C180
C180
C180
C180
C180
C180
C180
C180
C180
C180
C180
8100
ENDCHAR
STARTCHAR 160
ENCODING 160
SWIDTH 720 0
DWIDTH 10 0
BBX 9 14 0 0
BITMAP
FE00
FF00
C380
C180
C180
C380
DF00
DE00
C000
C000
C000
C000
C000
8000
ENDCHAR
STARTCHAR 161
ENCODING 161
SWIDTH 720 0
DWIDTH 10 0
BBX 9 14 0 0
BITMAP
0E00
3F00
7380
6180
C000
C000
C000
C000
C000
C000
6000
7000
3F80
0F00
ENDCHAR
STARTCHAR 162
ENCODING 162
SWIDTH 720 0
DWIDTH 10 0
BBX 9 14 0 0
BITMAP
FF00
7F80
0000
0C00
0C00
0C00
0C00
0C00
0C00
0C00
0C00
0C00
0C00
0400
ENDCHAR
STARTCHAR 163
ENCODING 163
SWIDTH 720 0
DWIDTH 10 0
BBX 9 14 0 0
BITMAP
8100
C180
C180
C180
C180
7D80
3D80
0180
0180
0180
C180
E180
7F00
3E00
ENDCHAR
STARTCHAR 164
ENCODING 164
SWIDTH 792 0
DWIDTH 11 0
BBX 10 14 0 0
BITMAP
3F00
7F80
EDC0
CCC0
CCC0
EDC0
6D80
2D00
0C00
0C00
0C00
0C00
0C00
0400
ENDCHAR
STARTCHAR 165
ENCODING 165
SWIDTH 720 0
DWIDTH 10 0
BBX 9 14 0 0
BITMAP
C180
C180
C180
6300
6300
3200
3800
1C00
0E00
6700
6300
C180
C180
C180
ENDCHAR
STARTCHAR 166
ENCODING 166
SWIDTH 720 0
DWIDTH 10 0
BBX 10 15 0 -1
BITMAP
8200
C300
C300
C300
C300
C300
C300
C300
C300
C300
C300
C300
DF00
DF80
01C0
ENDCHAR
STARTCHAR 167
ENCODING 167
SWIDTH 720 0
DWIDTH 10 0
BBX 9 14 0 0
BITMAP
8100
C180
C180
C180
C180
C180
E180
7D80
3D80
0180
0180
0180
0180
0080
ENDCHAR
STARTCHAR 168
ENCODING 168
SWIDTH 792 0
DWIDTH 11 0
BBX 10 14 0 0
BITMAP
8080
C0C0
C0C0
C0C0
C8C0
CCC0
CCC0
CCC0
CCC0
CCC0
C4C0
C040
DF80
5FC0
ENDCHAR
STARTCHAR 169
ENCODING 169
SWIDTH 792 0
DWIDTH 11 0
BBX 11 15 0 -1
BITMAP
8080
C0C0
C0C0
C0C0
C8C0
CCC0
CCC0
CCC0
CCC0
CCC0
C4C0
C040
DF80
5FC0
00E0
ENDCHAR
STARTCHAR 170
ENCODING 170
SWIDTH 720 0
DWIDTH 10 0
BBX 9 14 0 0
BITMAP
E000
E000
6000
6000
6000
6000
6E00
6F00
6380
6180
6180
6380
7F00
3E00
ENDCHAR
STARTCHAR 171
ENCODING 171
SWIDTH 792 0
DWIDTH 11 0
BBX 10 14 0 0
BITMAP
8080
C0C0
C0C0
C0C0
C0C0
C0C0
DCC0
DEC0
C740
C340
C340
C740
FEC0
7CC0
ENDCHAR
STARTCHAR 172
ENCODING 172
SWIDTH 720 0
DWIDTH 10 0
BBX 9 14 0 0
BITMAP
8000
C000
C000
C000
C000
C000
DE00
DF00
C380
C180
C180
C380
FF00
FE00
ENDCHAR
STARTCHAR 173
ENCODING 173
SWIDTH 720 0
DWIDTH 10 0
BBX 9 14 0 0
BITMAP
3E00
7F00
E380
C180
C180
0180
1D80
1D80
0180
0180
C180
E380
7F00
3E00
ENDCHAR
STARTCHAR 174
ENCODING 174
SWIDTH 792 0
DWIDTH 11 0
BBX 10 14 0 0
BITMAP
4700
CF80
DDC0
D8C0
D8C0
D8C0
F8C0
F8C0
D8C0
D8C0
D8C0
DDC0
CF80
8700
ENDCHAR
STARTCHAR 175
ENCODING 175
SWIDTH 720 0
DWIDTH 10 0
BBX 9 14 0 0
BITMAP
3F80
7F80
E180
C180
C180
E180
7D80
3D80
1D80
3980
7180
E180
C180
8100
ENDCHAR
STARTCHAR 176
ENCODING 176
SWIDTH 648 0
DWIDTH 9 0
BBX 8 11 0 0
BITMAP
7C
7F
03
03
3B
7B
E3
C3
C7
FF
7B
ENDCHAR
STARTCHAR 177
ENCODING 177
SWIDTH 648 0
DWIDTH 9 0
BBX 8 11 0 0
BITMAP
07
1F
38
70
66
CF
C3
C3
E7
7E
3C
ENDCHAR
STARTCHAR 178
ENCODING 178
SWIDTH 648 0
DWIDTH 9 0
BBX 8 11 0 0
BITMAP
5C
DE
C6
C6
DC
DE
C3
C3
C7
DE
BC
ENDCHAR
STARTCHAR 179
ENCODING 179
SWIDTH 648 0
DWIDTH 9 0
BBX 8 11 0 0
BITMAP
FE
FF
C0
C0
C0
C0
C0
C0
C0
C0
80
ENDCHAR
STARTCHAR 180
ENCODING 180
SWIDTH 792 0
DWIDTH 11 0
BBX 10 11 0 0
BITMAP
1F80
1F80
1980
3180
3180
3180
0180
7FC0
FFC0
C0C0
C0C0
ENDCHAR
STARTCHAR 181
ENCODING 181
SWIDTH 648 0
DWIDTH 9 0
BBX 8 11 0 0
BITMAP
3C
7E
E7
C3
C3
DF
DE
C0
E3
7F
3E
ENDCHAR
STARTCHAR 182
ENCODING 182
SWIDTH 720 0
DWIDTH 10 0
BBX 9 11 0 0
BITMAP
4080
C980
C980
6B00
3600
3600
6B00
C980
C980
C980
8100
ENDCHAR
STARTCHAR 183
ENCODING 183
SWIDTH 648 0
DWIDTH 9 0
BBX 8 11 0 0
BITMAP
74
F6
C3
07
7E
3E
06
03
07
FE
7C
ENDCHAR
STARTCHAR 184
ENCODING 184
SWIDTH 648 0
DWIDTH 9 0
BBX 8 11 0 0
BITMAP
41
C3
C3
C7
CF
DF
DB
D3
C3
C3
82
ENDCHAR
STARTCHAR 185
ENCODING 185
SWIDTH 648 0
DWIDTH 9 0
BBX 8 11 0 0
BITMAP
59
DB
D3
C7
CF
DF
DB
D3
C3
C3
82
ENDCHAR
STARTCHAR 186
ENCODING 186
SWIDTH 648 0
DWIDTH 9 0
BBX 8 11 0 0
BITMAP
47
CF
CC
DC
D8
D8
D8
DC
CE
C7
43
ENDCHAR
STARTCHAR 187
ENCODING 187
SWIDTH 648 0
DWIDTH 9 0
BBX 8 11 0 0
BITMAP
1B
3B
73
E3
C3
C3
C3
C3
C3
C3
C3
ENDCHAR
STARTCHAR 188
ENCODING 188
SWIDTH 720 0
DWIDTH 10 0
BBX 9 11 0 0
BITMAP
4100
E380
F780
F780
D580
D580
D580
D580
C180
C180
8100
ENDCHAR
STARTCHAR 189
ENCODING 189
SWIDTH 648 0
DWIDTH 9 0
BBX 8 11 0 0
BITMAP
41
C3
C3
FB
FB
C3
C3
C3
C3
C3
82
ENDCHAR
STARTCHAR 190
ENCODING 190
SWIDTH 648 0
DWIDTH 9 0
BBX 8 11 0 0
BITMAP
34
76
E3
C3
C3
C3
C3
C3
E3
76
34
ENDCHAR
STARTCHAR 191
ENCODING 191
SWIDTH 648 0
DWIDTH 9 0
BBX 8 11 0 0
BITMAP
5F
DF
C3
C3
C3
C3
C3
C3
C3
C3
82
ENDCHAR
ENDFONT
